<mxfile host="app.diagrams.net" agent="Mozilla/5.0 (Windows NT 10.0; Win64; x64) AppleWebKit/537.36 (KHTML, like Gecko) Chrome/130.0.0.0 Safari/537.36" version="24.7.12">
  <diagram name="Página-1" id="34MFDzbk6Uq0YvKTs7TF">
    <mxGraphModel dx="1720" dy="743" grid="1" gridSize="10" guides="1" tooltips="1" connect="1" arrows="1" fold="1" page="1" pageScale="1" pageWidth="827" pageHeight="1169" math="0" shadow="0">
      <root>
        <mxCell id="0" />
        <mxCell id="1" parent="0" />
        <mxCell id="on4v9yn42gorZZdt6JrK-69" style="edgeStyle=orthogonalEdgeStyle;rounded=0;orthogonalLoop=1;jettySize=auto;html=1;exitX=1;exitY=0.5;exitDx=0;exitDy=0;entryX=0;entryY=0.5;entryDx=0;entryDy=0;" edge="1" parent="1" source="on4v9yn42gorZZdt6JrK-1" target="on4v9yn42gorZZdt6JrK-2">
          <mxGeometry relative="1" as="geometry" />
        </mxCell>
        <mxCell id="on4v9yn42gorZZdt6JrK-70" style="edgeStyle=orthogonalEdgeStyle;rounded=0;orthogonalLoop=1;jettySize=auto;html=1;exitX=1;exitY=0.5;exitDx=0;exitDy=0;entryX=0;entryY=0.5;entryDx=0;entryDy=0;" edge="1" parent="1" source="on4v9yn42gorZZdt6JrK-1" target="on4v9yn42gorZZdt6JrK-4">
          <mxGeometry relative="1" as="geometry" />
        </mxCell>
        <mxCell id="on4v9yn42gorZZdt6JrK-72" style="edgeStyle=orthogonalEdgeStyle;rounded=0;orthogonalLoop=1;jettySize=auto;html=1;exitX=1;exitY=0.5;exitDx=0;exitDy=0;entryX=0;entryY=0.5;entryDx=0;entryDy=0;" edge="1" parent="1" source="on4v9yn42gorZZdt6JrK-1" target="on4v9yn42gorZZdt6JrK-71">
          <mxGeometry relative="1" as="geometry" />
        </mxCell>
        <mxCell id="on4v9yn42gorZZdt6JrK-83" style="edgeStyle=orthogonalEdgeStyle;rounded=0;orthogonalLoop=1;jettySize=auto;html=1;exitX=1;exitY=0.5;exitDx=0;exitDy=0;entryX=0;entryY=0.5;entryDx=0;entryDy=0;" edge="1" parent="1" source="on4v9yn42gorZZdt6JrK-1" target="on4v9yn42gorZZdt6JrK-82">
          <mxGeometry relative="1" as="geometry" />
        </mxCell>
        <mxCell id="on4v9yn42gorZZdt6JrK-97" style="edgeStyle=orthogonalEdgeStyle;rounded=0;orthogonalLoop=1;jettySize=auto;html=1;exitX=1;exitY=0.5;exitDx=0;exitDy=0;entryX=0;entryY=0.5;entryDx=0;entryDy=0;" edge="1" parent="1" source="on4v9yn42gorZZdt6JrK-1" target="on4v9yn42gorZZdt6JrK-13">
          <mxGeometry relative="1" as="geometry" />
        </mxCell>
        <mxCell id="on4v9yn42gorZZdt6JrK-98" style="edgeStyle=orthogonalEdgeStyle;rounded=0;orthogonalLoop=1;jettySize=auto;html=1;exitX=1;exitY=0.5;exitDx=0;exitDy=0;entryX=0;entryY=0.5;entryDx=0;entryDy=0;" edge="1" parent="1" source="on4v9yn42gorZZdt6JrK-1" target="on4v9yn42gorZZdt6JrK-12">
          <mxGeometry relative="1" as="geometry" />
        </mxCell>
        <mxCell id="on4v9yn42gorZZdt6JrK-99" style="edgeStyle=orthogonalEdgeStyle;rounded=0;orthogonalLoop=1;jettySize=auto;html=1;exitX=1;exitY=0.5;exitDx=0;exitDy=0;entryX=0;entryY=0.5;entryDx=0;entryDy=0;" edge="1" parent="1" source="on4v9yn42gorZZdt6JrK-1" target="on4v9yn42gorZZdt6JrK-11">
          <mxGeometry relative="1" as="geometry" />
        </mxCell>
        <mxCell id="on4v9yn42gorZZdt6JrK-100" style="edgeStyle=orthogonalEdgeStyle;rounded=0;orthogonalLoop=1;jettySize=auto;html=1;exitX=1;exitY=0.5;exitDx=0;exitDy=0;entryX=0;entryY=0.5;entryDx=0;entryDy=0;" edge="1" parent="1" source="on4v9yn42gorZZdt6JrK-1" target="on4v9yn42gorZZdt6JrK-10">
          <mxGeometry relative="1" as="geometry" />
        </mxCell>
        <mxCell id="on4v9yn42gorZZdt6JrK-101" style="edgeStyle=orthogonalEdgeStyle;rounded=0;orthogonalLoop=1;jettySize=auto;html=1;exitX=1;exitY=0.5;exitDx=0;exitDy=0;entryX=0;entryY=0.5;entryDx=0;entryDy=0;" edge="1" parent="1" source="on4v9yn42gorZZdt6JrK-1" target="on4v9yn42gorZZdt6JrK-14">
          <mxGeometry relative="1" as="geometry" />
        </mxCell>
        <mxCell id="on4v9yn42gorZZdt6JrK-1" value="Projeto Financix" style="rounded=1;whiteSpace=wrap;html=1;" vertex="1" parent="1">
          <mxGeometry x="40" y="560" width="120" height="60" as="geometry" />
        </mxCell>
        <mxCell id="on4v9yn42gorZZdt6JrK-47" style="edgeStyle=orthogonalEdgeStyle;rounded=0;orthogonalLoop=1;jettySize=auto;html=1;exitX=1;exitY=0.5;exitDx=0;exitDy=0;entryX=0;entryY=0.5;entryDx=0;entryDy=0;" edge="1" parent="1" source="on4v9yn42gorZZdt6JrK-2" target="on4v9yn42gorZZdt6JrK-22">
          <mxGeometry relative="1" as="geometry" />
        </mxCell>
        <mxCell id="on4v9yn42gorZZdt6JrK-51" style="edgeStyle=orthogonalEdgeStyle;rounded=0;orthogonalLoop=1;jettySize=auto;html=1;exitX=1;exitY=0.5;exitDx=0;exitDy=0;entryX=0;entryY=0.5;entryDx=0;entryDy=0;" edge="1" parent="1" source="on4v9yn42gorZZdt6JrK-2" target="on4v9yn42gorZZdt6JrK-26">
          <mxGeometry relative="1" as="geometry" />
        </mxCell>
        <mxCell id="on4v9yn42gorZZdt6JrK-52" style="edgeStyle=orthogonalEdgeStyle;rounded=0;orthogonalLoop=1;jettySize=auto;html=1;exitX=1;exitY=0.5;exitDx=0;exitDy=0;entryX=0;entryY=0.5;entryDx=0;entryDy=0;" edge="1" parent="1" source="on4v9yn42gorZZdt6JrK-2" target="on4v9yn42gorZZdt6JrK-32">
          <mxGeometry relative="1" as="geometry" />
        </mxCell>
        <mxCell id="on4v9yn42gorZZdt6JrK-54" style="edgeStyle=orthogonalEdgeStyle;rounded=0;orthogonalLoop=1;jettySize=auto;html=1;exitX=1;exitY=0.5;exitDx=0;exitDy=0;entryX=0;entryY=0.5;entryDx=0;entryDy=0;" edge="1" parent="1" source="on4v9yn42gorZZdt6JrK-2" target="on4v9yn42gorZZdt6JrK-36">
          <mxGeometry relative="1" as="geometry" />
        </mxCell>
        <mxCell id="on4v9yn42gorZZdt6JrK-2" value="1. Planejamento e Definição de Requisitos" style="rounded=1;whiteSpace=wrap;html=1;" vertex="1" parent="1">
          <mxGeometry x="260" y="280" width="120" height="60" as="geometry" />
        </mxCell>
        <mxCell id="on4v9yn42gorZZdt6JrK-55" style="edgeStyle=orthogonalEdgeStyle;rounded=0;orthogonalLoop=1;jettySize=auto;html=1;exitX=1;exitY=0.5;exitDx=0;exitDy=0;entryX=0;entryY=0.5;entryDx=0;entryDy=0;" edge="1" parent="1" source="on4v9yn42gorZZdt6JrK-4" target="on4v9yn42gorZZdt6JrK-40">
          <mxGeometry relative="1" as="geometry" />
        </mxCell>
        <mxCell id="on4v9yn42gorZZdt6JrK-59" style="edgeStyle=orthogonalEdgeStyle;rounded=0;orthogonalLoop=1;jettySize=auto;html=1;exitX=1;exitY=0.5;exitDx=0;exitDy=0;entryX=0;entryY=0.5;entryDx=0;entryDy=0;" edge="1" parent="1" source="on4v9yn42gorZZdt6JrK-4" target="on4v9yn42gorZZdt6JrK-58">
          <mxGeometry relative="1" as="geometry" />
        </mxCell>
        <mxCell id="on4v9yn42gorZZdt6JrK-68" style="edgeStyle=orthogonalEdgeStyle;rounded=0;orthogonalLoop=1;jettySize=auto;html=1;exitX=1;exitY=0.5;exitDx=0;exitDy=0;entryX=0;entryY=0.5;entryDx=0;entryDy=0;" edge="1" parent="1" source="on4v9yn42gorZZdt6JrK-4" target="on4v9yn42gorZZdt6JrK-63">
          <mxGeometry relative="1" as="geometry" />
        </mxCell>
        <mxCell id="on4v9yn42gorZZdt6JrK-4" value="2. Modelagem e Design do Sistema" style="rounded=1;whiteSpace=wrap;html=1;" vertex="1" parent="1">
          <mxGeometry x="260" y="670" width="120" height="60" as="geometry" />
        </mxCell>
        <mxCell id="on4v9yn42gorZZdt6JrK-131" style="edgeStyle=orthogonalEdgeStyle;rounded=0;orthogonalLoop=1;jettySize=auto;html=1;exitX=1;exitY=0.5;exitDx=0;exitDy=0;entryX=0;entryY=0.5;entryDx=0;entryDy=0;" edge="1" parent="1" source="on4v9yn42gorZZdt6JrK-10" target="on4v9yn42gorZZdt6JrK-129">
          <mxGeometry relative="1" as="geometry" />
        </mxCell>
        <mxCell id="on4v9yn42gorZZdt6JrK-10" value="8. Documentação" style="rounded=1;whiteSpace=wrap;html=1;" vertex="1" parent="1">
          <mxGeometry x="260" y="1910" width="120" height="60" as="geometry" />
        </mxCell>
        <mxCell id="on4v9yn42gorZZdt6JrK-127" style="edgeStyle=orthogonalEdgeStyle;rounded=0;orthogonalLoop=1;jettySize=auto;html=1;exitX=1;exitY=0.5;exitDx=0;exitDy=0;entryX=0;entryY=0.5;entryDx=0;entryDy=0;" edge="1" parent="1" source="on4v9yn42gorZZdt6JrK-11" target="on4v9yn42gorZZdt6JrK-125">
          <mxGeometry relative="1" as="geometry" />
        </mxCell>
        <mxCell id="on4v9yn42gorZZdt6JrK-11" value="7. Validação e Ajustes Finais" style="rounded=1;whiteSpace=wrap;html=1;" vertex="1" parent="1">
          <mxGeometry x="260" y="1810" width="120" height="60" as="geometry" />
        </mxCell>
        <mxCell id="on4v9yn42gorZZdt6JrK-118" style="edgeStyle=orthogonalEdgeStyle;rounded=0;orthogonalLoop=1;jettySize=auto;html=1;exitX=1;exitY=0.5;exitDx=0;exitDy=0;entryX=0;entryY=0.5;entryDx=0;entryDy=0;" edge="1" parent="1" source="on4v9yn42gorZZdt6JrK-12" target="on4v9yn42gorZZdt6JrK-116">
          <mxGeometry relative="1" as="geometry" />
        </mxCell>
        <mxCell id="on4v9yn42gorZZdt6JrK-119" style="edgeStyle=orthogonalEdgeStyle;rounded=0;orthogonalLoop=1;jettySize=auto;html=1;exitX=1;exitY=0.5;exitDx=0;exitDy=0;entryX=0;entryY=0.5;entryDx=0;entryDy=0;" edge="1" parent="1" source="on4v9yn42gorZZdt6JrK-12" target="on4v9yn42gorZZdt6JrK-117">
          <mxGeometry relative="1" as="geometry" />
        </mxCell>
        <mxCell id="on4v9yn42gorZZdt6JrK-12" value="6. Testes de Integração e Unitários" style="rounded=1;whiteSpace=wrap;html=1;" vertex="1" parent="1">
          <mxGeometry x="260" y="1670" width="120" height="60" as="geometry" />
        </mxCell>
        <mxCell id="on4v9yn42gorZZdt6JrK-109" style="edgeStyle=orthogonalEdgeStyle;rounded=0;orthogonalLoop=1;jettySize=auto;html=1;exitX=1;exitY=0.5;exitDx=0;exitDy=0;entryX=0;entryY=0.5;entryDx=0;entryDy=0;" edge="1" parent="1" source="on4v9yn42gorZZdt6JrK-13" target="on4v9yn42gorZZdt6JrK-102">
          <mxGeometry relative="1" as="geometry" />
        </mxCell>
        <mxCell id="on4v9yn42gorZZdt6JrK-114" style="edgeStyle=orthogonalEdgeStyle;rounded=0;orthogonalLoop=1;jettySize=auto;html=1;exitX=1;exitY=0.5;exitDx=0;exitDy=0;entryX=0;entryY=0.5;entryDx=0;entryDy=0;" edge="1" parent="1" source="on4v9yn42gorZZdt6JrK-13" target="on4v9yn42gorZZdt6JrK-103">
          <mxGeometry relative="1" as="geometry" />
        </mxCell>
        <mxCell id="on4v9yn42gorZZdt6JrK-115" style="edgeStyle=orthogonalEdgeStyle;rounded=0;orthogonalLoop=1;jettySize=auto;html=1;exitX=1;exitY=0.5;exitDx=0;exitDy=0;entryX=0;entryY=0.5;entryDx=0;entryDy=0;" edge="1" parent="1" source="on4v9yn42gorZZdt6JrK-13" target="on4v9yn42gorZZdt6JrK-104">
          <mxGeometry relative="1" as="geometry" />
        </mxCell>
        <mxCell id="on4v9yn42gorZZdt6JrK-13" value="5. Implementação - Frontend" style="rounded=1;whiteSpace=wrap;html=1;" vertex="1" parent="1">
          <mxGeometry x="260" y="1450" width="120" height="60" as="geometry" />
        </mxCell>
        <mxCell id="on4v9yn42gorZZdt6JrK-135" style="edgeStyle=orthogonalEdgeStyle;rounded=0;orthogonalLoop=1;jettySize=auto;html=1;exitX=1;exitY=0.5;exitDx=0;exitDy=0;entryX=0;entryY=0.5;entryDx=0;entryDy=0;" edge="1" parent="1" source="on4v9yn42gorZZdt6JrK-14" target="on4v9yn42gorZZdt6JrK-133">
          <mxGeometry relative="1" as="geometry" />
        </mxCell>
        <mxCell id="on4v9yn42gorZZdt6JrK-14" value="9. Implantação e Apresentação" style="rounded=1;whiteSpace=wrap;html=1;" vertex="1" parent="1">
          <mxGeometry x="260" y="2010" width="120" height="60" as="geometry" />
        </mxCell>
        <mxCell id="on4v9yn42gorZZdt6JrK-46" style="edgeStyle=orthogonalEdgeStyle;rounded=0;orthogonalLoop=1;jettySize=auto;html=1;exitX=1;exitY=0.5;exitDx=0;exitDy=0;entryX=0;entryY=0.5;entryDx=0;entryDy=0;" edge="1" parent="1" source="on4v9yn42gorZZdt6JrK-22" target="on4v9yn42gorZZdt6JrK-23">
          <mxGeometry relative="1" as="geometry" />
        </mxCell>
        <mxCell id="on4v9yn42gorZZdt6JrK-22" value="1.1. Definição do Escopo" style="rounded=1;whiteSpace=wrap;html=1;" vertex="1" parent="1">
          <mxGeometry x="450" y="130" width="120" height="60" as="geometry" />
        </mxCell>
        <mxCell id="on4v9yn42gorZZdt6JrK-23" value="Identificar e definir funcionalidades dentro e fora do escopo." style="rounded=1;whiteSpace=wrap;html=1;" vertex="1" parent="1">
          <mxGeometry x="610" y="130" width="120" height="60" as="geometry" />
        </mxCell>
        <mxCell id="on4v9yn42gorZZdt6JrK-48" style="edgeStyle=orthogonalEdgeStyle;rounded=0;orthogonalLoop=1;jettySize=auto;html=1;exitX=1;exitY=0.5;exitDx=0;exitDy=0;entryX=0;entryY=0.5;entryDx=0;entryDy=0;" edge="1" parent="1" source="on4v9yn42gorZZdt6JrK-26" target="on4v9yn42gorZZdt6JrK-28">
          <mxGeometry relative="1" as="geometry" />
        </mxCell>
        <mxCell id="on4v9yn42gorZZdt6JrK-49" style="edgeStyle=orthogonalEdgeStyle;rounded=0;orthogonalLoop=1;jettySize=auto;html=1;exitX=1;exitY=0.5;exitDx=0;exitDy=0;entryX=0;entryY=0.5;entryDx=0;entryDy=0;" edge="1" parent="1" source="on4v9yn42gorZZdt6JrK-26" target="on4v9yn42gorZZdt6JrK-30">
          <mxGeometry relative="1" as="geometry" />
        </mxCell>
        <mxCell id="on4v9yn42gorZZdt6JrK-26" value="1.2. Levantamento de Requisitos" style="rounded=1;whiteSpace=wrap;html=1;" vertex="1" parent="1">
          <mxGeometry x="450" y="230" width="120" height="60" as="geometry" />
        </mxCell>
        <mxCell id="on4v9yn42gorZZdt6JrK-28" value="Documentar requisitos funcionais" style="rounded=1;whiteSpace=wrap;html=1;" vertex="1" parent="1">
          <mxGeometry x="622" y="210" width="100" height="50" as="geometry" />
        </mxCell>
        <mxCell id="on4v9yn42gorZZdt6JrK-30" value="Documentar requisitos não funcionais" style="rounded=1;whiteSpace=wrap;html=1;" vertex="1" parent="1">
          <mxGeometry x="622" y="270" width="98" height="50" as="geometry" />
        </mxCell>
        <mxCell id="on4v9yn42gorZZdt6JrK-50" style="edgeStyle=orthogonalEdgeStyle;rounded=0;orthogonalLoop=1;jettySize=auto;html=1;exitX=1;exitY=0.5;exitDx=0;exitDy=0;entryX=0;entryY=0.5;entryDx=0;entryDy=0;" edge="1" parent="1" source="on4v9yn42gorZZdt6JrK-32" target="on4v9yn42gorZZdt6JrK-33">
          <mxGeometry relative="1" as="geometry" />
        </mxCell>
        <mxCell id="on4v9yn42gorZZdt6JrK-32" value="1.3. Planejamento do Cronograma" style="rounded=1;whiteSpace=wrap;html=1;" vertex="1" parent="1">
          <mxGeometry x="450" y="340" width="120" height="60" as="geometry" />
        </mxCell>
        <mxCell id="on4v9yn42gorZZdt6JrK-33" value="Definir cronograma com marcos e prazos de entrega." style="rounded=1;whiteSpace=wrap;html=1;" vertex="1" parent="1">
          <mxGeometry x="610" y="340" width="120" height="60" as="geometry" />
        </mxCell>
        <mxCell id="on4v9yn42gorZZdt6JrK-53" style="edgeStyle=orthogonalEdgeStyle;rounded=0;orthogonalLoop=1;jettySize=auto;html=1;exitX=1;exitY=0.5;exitDx=0;exitDy=0;entryX=0;entryY=0.5;entryDx=0;entryDy=0;" edge="1" parent="1" source="on4v9yn42gorZZdt6JrK-36" target="on4v9yn42gorZZdt6JrK-37">
          <mxGeometry relative="1" as="geometry" />
        </mxCell>
        <mxCell id="on4v9yn42gorZZdt6JrK-36" value="1.4. Análise de Riscos" style="rounded=1;whiteSpace=wrap;html=1;" vertex="1" parent="1">
          <mxGeometry x="450" y="420" width="120" height="60" as="geometry" />
        </mxCell>
        <mxCell id="on4v9yn42gorZZdt6JrK-37" value="Identificar possíveis riscos e estabelecer plano de mitigação." style="rounded=1;whiteSpace=wrap;html=1;" vertex="1" parent="1">
          <mxGeometry x="610" y="420" width="120" height="60" as="geometry" />
        </mxCell>
        <mxCell id="on4v9yn42gorZZdt6JrK-56" style="edgeStyle=orthogonalEdgeStyle;rounded=0;orthogonalLoop=1;jettySize=auto;html=1;exitX=1;exitY=0.5;exitDx=0;exitDy=0;entryX=0;entryY=0.5;entryDx=0;entryDy=0;" edge="1" parent="1" source="on4v9yn42gorZZdt6JrK-40" target="on4v9yn42gorZZdt6JrK-41">
          <mxGeometry relative="1" as="geometry" />
        </mxCell>
        <mxCell id="on4v9yn42gorZZdt6JrK-57" style="edgeStyle=orthogonalEdgeStyle;rounded=0;orthogonalLoop=1;jettySize=auto;html=1;exitX=1;exitY=0.5;exitDx=0;exitDy=0;entryX=0;entryY=0.5;entryDx=0;entryDy=0;" edge="1" parent="1" source="on4v9yn42gorZZdt6JrK-40" target="on4v9yn42gorZZdt6JrK-42">
          <mxGeometry relative="1" as="geometry" />
        </mxCell>
        <mxCell id="on4v9yn42gorZZdt6JrK-40" value="2.1. Design da Interface e Experiência do Usuário" style="rounded=1;whiteSpace=wrap;html=1;" vertex="1" parent="1">
          <mxGeometry x="450" y="540" width="120" height="60" as="geometry" />
        </mxCell>
        <mxCell id="on4v9yn42gorZZdt6JrK-41" value="Projetar interface responsiva para desktop e dispositivos móveis." style="rounded=1;whiteSpace=wrap;html=1;" vertex="1" parent="1">
          <mxGeometry x="612" y="500" width="120" height="60" as="geometry" />
        </mxCell>
        <mxCell id="on4v9yn42gorZZdt6JrK-42" value="Definir layout." style="rounded=1;whiteSpace=wrap;html=1;" vertex="1" parent="1">
          <mxGeometry x="612" y="570" width="120" height="60" as="geometry" />
        </mxCell>
        <mxCell id="on4v9yn42gorZZdt6JrK-62" style="edgeStyle=orthogonalEdgeStyle;rounded=0;orthogonalLoop=1;jettySize=auto;html=1;exitX=1;exitY=0.5;exitDx=0;exitDy=0;" edge="1" parent="1" source="on4v9yn42gorZZdt6JrK-58">
          <mxGeometry relative="1" as="geometry">
            <mxPoint x="600" y="680.2941176470588" as="targetPoint" />
            <Array as="points">
              <mxPoint x="610" y="680" />
              <mxPoint x="610" y="680" />
            </Array>
          </mxGeometry>
        </mxCell>
        <mxCell id="on4v9yn42gorZZdt6JrK-58" value="2.2. Modelagem do Banco de Dados" style="rounded=1;whiteSpace=wrap;html=1;" vertex="1" parent="1">
          <mxGeometry x="450" y="650" width="120" height="60" as="geometry" />
        </mxCell>
        <mxCell id="on4v9yn42gorZZdt6JrK-60" value="Criar modelo de dados para armazenamento de despesas, receitas e categorias." style="rounded=1;whiteSpace=wrap;html=1;" vertex="1" parent="1">
          <mxGeometry x="604" y="650" width="128" height="70" as="geometry" />
        </mxCell>
        <mxCell id="on4v9yn42gorZZdt6JrK-66" style="edgeStyle=orthogonalEdgeStyle;rounded=0;orthogonalLoop=1;jettySize=auto;html=1;exitX=1;exitY=0.5;exitDx=0;exitDy=0;entryX=0;entryY=0.5;entryDx=0;entryDy=0;" edge="1" parent="1" source="on4v9yn42gorZZdt6JrK-63" target="on4v9yn42gorZZdt6JrK-64">
          <mxGeometry relative="1" as="geometry" />
        </mxCell>
        <mxCell id="on4v9yn42gorZZdt6JrK-67" style="edgeStyle=orthogonalEdgeStyle;rounded=0;orthogonalLoop=1;jettySize=auto;html=1;exitX=1;exitY=0.5;exitDx=0;exitDy=0;entryX=0;entryY=0.5;entryDx=0;entryDy=0;" edge="1" parent="1" source="on4v9yn42gorZZdt6JrK-63" target="on4v9yn42gorZZdt6JrK-65">
          <mxGeometry relative="1" as="geometry" />
        </mxCell>
        <mxCell id="on4v9yn42gorZZdt6JrK-63" value="2.3. Arquitetura do Sistema" style="rounded=1;whiteSpace=wrap;html=1;" vertex="1" parent="1">
          <mxGeometry x="450" y="770" width="120" height="60" as="geometry" />
        </mxCell>
        <mxCell id="on4v9yn42gorZZdt6JrK-64" value="Definir arquitetura de software (frontend, backend e banco de dados)." style="rounded=1;whiteSpace=wrap;html=1;" vertex="1" parent="1">
          <mxGeometry x="608" y="730" width="120" height="60" as="geometry" />
        </mxCell>
        <mxCell id="on4v9yn42gorZZdt6JrK-65" value="Planejar estrutura de autenticação e segurança." style="rounded=1;whiteSpace=wrap;html=1;" vertex="1" parent="1">
          <mxGeometry x="612" y="810" width="120" height="60" as="geometry" />
        </mxCell>
        <mxCell id="on4v9yn42gorZZdt6JrK-76" style="edgeStyle=orthogonalEdgeStyle;rounded=0;orthogonalLoop=1;jettySize=auto;html=1;exitX=1;exitY=0.5;exitDx=0;exitDy=0;entryX=0;entryY=0.5;entryDx=0;entryDy=0;" edge="1" parent="1" source="on4v9yn42gorZZdt6JrK-71" target="on4v9yn42gorZZdt6JrK-73">
          <mxGeometry relative="1" as="geometry" />
        </mxCell>
        <mxCell id="on4v9yn42gorZZdt6JrK-78" style="edgeStyle=orthogonalEdgeStyle;rounded=0;orthogonalLoop=1;jettySize=auto;html=1;exitX=1;exitY=0.5;exitDx=0;exitDy=0;entryX=0;entryY=0.5;entryDx=0;entryDy=0;" edge="1" parent="1" source="on4v9yn42gorZZdt6JrK-71" target="on4v9yn42gorZZdt6JrK-74">
          <mxGeometry relative="1" as="geometry" />
        </mxCell>
        <mxCell id="on4v9yn42gorZZdt6JrK-71" value="3. Configuração do Ambiente" style="rounded=1;whiteSpace=wrap;html=1;" vertex="1" parent="1">
          <mxGeometry x="260" y="920" width="120" height="60" as="geometry" />
        </mxCell>
        <mxCell id="on4v9yn42gorZZdt6JrK-77" style="edgeStyle=orthogonalEdgeStyle;rounded=0;orthogonalLoop=1;jettySize=auto;html=1;exitX=1;exitY=0.5;exitDx=0;exitDy=0;entryX=0;entryY=0.5;entryDx=0;entryDy=0;" edge="1" parent="1" source="on4v9yn42gorZZdt6JrK-73" target="on4v9yn42gorZZdt6JrK-75">
          <mxGeometry relative="1" as="geometry" />
        </mxCell>
        <mxCell id="on4v9yn42gorZZdt6JrK-73" value="3.1. Configuração de Ferramentas e Softwares" style="rounded=1;whiteSpace=wrap;html=1;" vertex="1" parent="1">
          <mxGeometry x="450" y="890" width="120" height="60" as="geometry" />
        </mxCell>
        <mxCell id="on4v9yn42gorZZdt6JrK-81" style="edgeStyle=orthogonalEdgeStyle;rounded=0;orthogonalLoop=1;jettySize=auto;html=1;exitX=1;exitY=0.5;exitDx=0;exitDy=0;entryX=0;entryY=0.5;entryDx=0;entryDy=0;" edge="1" parent="1" source="on4v9yn42gorZZdt6JrK-74" target="on4v9yn42gorZZdt6JrK-79">
          <mxGeometry relative="1" as="geometry" />
        </mxCell>
        <mxCell id="on4v9yn42gorZZdt6JrK-74" value="3.2. Preparação do Ambiente de Desenvolvimento" style="rounded=1;whiteSpace=wrap;html=1;" vertex="1" parent="1">
          <mxGeometry x="450" y="960" width="120" height="60" as="geometry" />
        </mxCell>
        <mxCell id="on4v9yn42gorZZdt6JrK-75" value="Configurar IDE, controle de versão (ex: Git) e repositório de código." style="rounded=1;whiteSpace=wrap;html=1;" vertex="1" parent="1">
          <mxGeometry x="612" y="890" width="120" height="60" as="geometry" />
        </mxCell>
        <mxCell id="on4v9yn42gorZZdt6JrK-79" value="Configurar servidor de desenvolvimento e banco de dados local." style="rounded=1;whiteSpace=wrap;html=1;" vertex="1" parent="1">
          <mxGeometry x="610" y="960" width="120" height="60" as="geometry" />
        </mxCell>
        <mxCell id="on4v9yn42gorZZdt6JrK-86" style="edgeStyle=orthogonalEdgeStyle;rounded=0;orthogonalLoop=1;jettySize=auto;html=1;exitX=1;exitY=0.5;exitDx=0;exitDy=0;entryX=0;entryY=0.5;entryDx=0;entryDy=0;" edge="1" parent="1" source="on4v9yn42gorZZdt6JrK-80" target="on4v9yn42gorZZdt6JrK-84">
          <mxGeometry relative="1" as="geometry" />
        </mxCell>
        <mxCell id="on4v9yn42gorZZdt6JrK-87" style="edgeStyle=orthogonalEdgeStyle;rounded=0;orthogonalLoop=1;jettySize=auto;html=1;exitX=1;exitY=0.5;exitDx=0;exitDy=0;entryX=0;entryY=0.5;entryDx=0;entryDy=0;" edge="1" parent="1" source="on4v9yn42gorZZdt6JrK-80" target="on4v9yn42gorZZdt6JrK-85">
          <mxGeometry relative="1" as="geometry" />
        </mxCell>
        <mxCell id="on4v9yn42gorZZdt6JrK-80" value="4.1. Desenvolvimento das Funcionalidades de Backend" style="rounded=1;whiteSpace=wrap;html=1;" vertex="1" parent="1">
          <mxGeometry x="450" y="1080" width="120" height="60" as="geometry" />
        </mxCell>
        <mxCell id="on4v9yn42gorZZdt6JrK-88" style="edgeStyle=orthogonalEdgeStyle;rounded=0;orthogonalLoop=1;jettySize=auto;html=1;exitX=1;exitY=0.5;exitDx=0;exitDy=0;entryX=0;entryY=0.5;entryDx=0;entryDy=0;" edge="1" parent="1" source="on4v9yn42gorZZdt6JrK-82" target="on4v9yn42gorZZdt6JrK-80">
          <mxGeometry relative="1" as="geometry" />
        </mxCell>
        <mxCell id="on4v9yn42gorZZdt6JrK-91" style="edgeStyle=orthogonalEdgeStyle;rounded=0;orthogonalLoop=1;jettySize=auto;html=1;exitX=1;exitY=0.5;exitDx=0;exitDy=0;entryX=0;entryY=0.5;entryDx=0;entryDy=0;" edge="1" parent="1" source="on4v9yn42gorZZdt6JrK-82" target="on4v9yn42gorZZdt6JrK-89">
          <mxGeometry relative="1" as="geometry" />
        </mxCell>
        <mxCell id="on4v9yn42gorZZdt6JrK-95" style="edgeStyle=orthogonalEdgeStyle;rounded=0;orthogonalLoop=1;jettySize=auto;html=1;exitX=1;exitY=0.5;exitDx=0;exitDy=0;entryX=0;entryY=0.5;entryDx=0;entryDy=0;" edge="1" parent="1" source="on4v9yn42gorZZdt6JrK-82" target="on4v9yn42gorZZdt6JrK-93">
          <mxGeometry relative="1" as="geometry" />
        </mxCell>
        <mxCell id="on4v9yn42gorZZdt6JrK-82" value="4. Implementação - Backend" style="rounded=1;whiteSpace=wrap;html=1;" vertex="1" parent="1">
          <mxGeometry x="260" y="1170" width="120" height="60" as="geometry" />
        </mxCell>
        <mxCell id="on4v9yn42gorZZdt6JrK-84" value="Implementar o registro e edição de despesas, receitas e metas financeiras." style="rounded=1;whiteSpace=wrap;html=1;" vertex="1" parent="1">
          <mxGeometry x="608" y="1040" width="120" height="60" as="geometry" />
        </mxCell>
        <mxCell id="on4v9yn42gorZZdt6JrK-85" value="Implementar geração de relatórios financeiros (PDF e CSV)." style="rounded=1;whiteSpace=wrap;html=1;" vertex="1" parent="1">
          <mxGeometry x="612" y="1120" width="120" height="60" as="geometry" />
        </mxCell>
        <mxCell id="on4v9yn42gorZZdt6JrK-92" style="edgeStyle=orthogonalEdgeStyle;rounded=0;orthogonalLoop=1;jettySize=auto;html=1;exitX=1;exitY=0.5;exitDx=0;exitDy=0;entryX=0;entryY=0.5;entryDx=0;entryDy=0;" edge="1" parent="1" source="on4v9yn42gorZZdt6JrK-89" target="on4v9yn42gorZZdt6JrK-90">
          <mxGeometry relative="1" as="geometry" />
        </mxCell>
        <mxCell id="on4v9yn42gorZZdt6JrK-89" value="4.2. Segurança e Autenticação" style="rounded=1;whiteSpace=wrap;html=1;" vertex="1" parent="1">
          <mxGeometry x="450" y="1200" width="120" height="60" as="geometry" />
        </mxCell>
        <mxCell id="on4v9yn42gorZZdt6JrK-90" value="Configurar sistema de login seguro e criptografia de dados." style="rounded=1;whiteSpace=wrap;html=1;" vertex="1" parent="1">
          <mxGeometry x="608" y="1200" width="120" height="60" as="geometry" />
        </mxCell>
        <mxCell id="on4v9yn42gorZZdt6JrK-96" style="edgeStyle=orthogonalEdgeStyle;rounded=0;orthogonalLoop=1;jettySize=auto;html=1;exitX=1;exitY=0.5;exitDx=0;exitDy=0;entryX=0;entryY=0.5;entryDx=0;entryDy=0;" edge="1" parent="1" source="on4v9yn42gorZZdt6JrK-93" target="on4v9yn42gorZZdt6JrK-94">
          <mxGeometry relative="1" as="geometry" />
        </mxCell>
        <mxCell id="on4v9yn42gorZZdt6JrK-93" value="4.3. Integração com Banco de Dados" style="rounded=1;whiteSpace=wrap;html=1;" vertex="1" parent="1">
          <mxGeometry x="450" y="1280" width="120" height="60" as="geometry" />
        </mxCell>
        <mxCell id="on4v9yn42gorZZdt6JrK-94" value="Conectar backend ao banco de dados e realizar testes de integração." style="rounded=1;whiteSpace=wrap;html=1;" vertex="1" parent="1">
          <mxGeometry x="608" y="1280" width="120" height="60" as="geometry" />
        </mxCell>
        <mxCell id="on4v9yn42gorZZdt6JrK-107" style="edgeStyle=orthogonalEdgeStyle;rounded=0;orthogonalLoop=1;jettySize=auto;html=1;exitX=1;exitY=0.5;exitDx=0;exitDy=0;entryX=0;entryY=0.5;entryDx=0;entryDy=0;" edge="1" parent="1" source="on4v9yn42gorZZdt6JrK-102" target="on4v9yn42gorZZdt6JrK-105">
          <mxGeometry relative="1" as="geometry" />
        </mxCell>
        <mxCell id="on4v9yn42gorZZdt6JrK-108" style="edgeStyle=orthogonalEdgeStyle;rounded=0;orthogonalLoop=1;jettySize=auto;html=1;exitX=1;exitY=0.5;exitDx=0;exitDy=0;entryX=0;entryY=0.5;entryDx=0;entryDy=0;" edge="1" parent="1" source="on4v9yn42gorZZdt6JrK-102" target="on4v9yn42gorZZdt6JrK-106">
          <mxGeometry relative="1" as="geometry" />
        </mxCell>
        <mxCell id="on4v9yn42gorZZdt6JrK-102" value="5.1. Desenvolvimento da Interface de Usuário" style="rounded=1;whiteSpace=wrap;html=1;" vertex="1" parent="1">
          <mxGeometry x="450" y="1380" width="120" height="60" as="geometry" />
        </mxCell>
        <mxCell id="on4v9yn42gorZZdt6JrK-113" style="edgeStyle=orthogonalEdgeStyle;rounded=0;orthogonalLoop=1;jettySize=auto;html=1;exitX=1;exitY=0.5;exitDx=0;exitDy=0;entryX=0;entryY=0.5;entryDx=0;entryDy=0;" edge="1" parent="1" source="on4v9yn42gorZZdt6JrK-103" target="on4v9yn42gorZZdt6JrK-110">
          <mxGeometry relative="1" as="geometry" />
        </mxCell>
        <mxCell id="on4v9yn42gorZZdt6JrK-103" value="5.2. Responsividade e Acessibilidade" style="rounded=1;whiteSpace=wrap;html=1;" vertex="1" parent="1">
          <mxGeometry x="450" y="1490" width="120" height="60" as="geometry" />
        </mxCell>
        <mxCell id="on4v9yn42gorZZdt6JrK-112" style="edgeStyle=orthogonalEdgeStyle;rounded=0;orthogonalLoop=1;jettySize=auto;html=1;exitX=1;exitY=0.5;exitDx=0;exitDy=0;entryX=0;entryY=0.5;entryDx=0;entryDy=0;" edge="1" parent="1" source="on4v9yn42gorZZdt6JrK-104" target="on4v9yn42gorZZdt6JrK-111">
          <mxGeometry relative="1" as="geometry" />
        </mxCell>
        <mxCell id="on4v9yn42gorZZdt6JrK-104" value="5.3. Integração com Backend" style="rounded=1;whiteSpace=wrap;html=1;" vertex="1" parent="1">
          <mxGeometry x="450" y="1560" width="120" height="60" as="geometry" />
        </mxCell>
        <mxCell id="on4v9yn42gorZZdt6JrK-105" value="Criar formulários para registro de despesas e receitas." style="rounded=1;whiteSpace=wrap;html=1;" vertex="1" parent="1">
          <mxGeometry x="608" y="1350" width="120" height="60" as="geometry" />
        </mxCell>
        <mxCell id="on4v9yn42gorZZdt6JrK-106" value="Desenvolver visualizações de gráficos e tabelas de fluxos financeiros." style="rounded=1;whiteSpace=wrap;html=1;" vertex="1" parent="1">
          <mxGeometry x="611" y="1420" width="120" height="60" as="geometry" />
        </mxCell>
        <mxCell id="on4v9yn42gorZZdt6JrK-110" value="Garantir que a interface se adapte bem em diferentes dispositivos." style="rounded=1;whiteSpace=wrap;html=1;" vertex="1" parent="1">
          <mxGeometry x="612" y="1490" width="120" height="60" as="geometry" />
        </mxCell>
        <mxCell id="on4v9yn42gorZZdt6JrK-111" value="Conectar frontend com a API do backend e testar requisições." style="rounded=1;whiteSpace=wrap;html=1;" vertex="1" parent="1">
          <mxGeometry x="612" y="1560" width="120" height="60" as="geometry" />
        </mxCell>
        <mxCell id="on4v9yn42gorZZdt6JrK-122" style="edgeStyle=orthogonalEdgeStyle;rounded=0;orthogonalLoop=1;jettySize=auto;html=1;exitX=1;exitY=0.5;exitDx=0;exitDy=0;entryX=0;entryY=0.5;entryDx=0;entryDy=0;" edge="1" parent="1" source="on4v9yn42gorZZdt6JrK-116" target="on4v9yn42gorZZdt6JrK-120">
          <mxGeometry relative="1" as="geometry" />
        </mxCell>
        <mxCell id="on4v9yn42gorZZdt6JrK-116" value="6.1. Testes de Funcionalidades" style="rounded=1;whiteSpace=wrap;html=1;" vertex="1" parent="1">
          <mxGeometry x="450" y="1640" width="120" height="60" as="geometry" />
        </mxCell>
        <mxCell id="on4v9yn42gorZZdt6JrK-123" style="edgeStyle=orthogonalEdgeStyle;rounded=0;orthogonalLoop=1;jettySize=auto;html=1;exitX=1;exitY=0.5;exitDx=0;exitDy=0;entryX=0;entryY=0.5;entryDx=0;entryDy=0;" edge="1" parent="1" source="on4v9yn42gorZZdt6JrK-117" target="on4v9yn42gorZZdt6JrK-121">
          <mxGeometry relative="1" as="geometry" />
        </mxCell>
        <mxCell id="on4v9yn42gorZZdt6JrK-117" value="6.2. Testes de Integração" style="rounded=1;whiteSpace=wrap;html=1;" vertex="1" parent="1">
          <mxGeometry x="450" y="1720" width="120" height="60" as="geometry" />
        </mxCell>
        <mxCell id="on4v9yn42gorZZdt6JrK-120" value="Realizar testes unitários no backend e frontend." style="rounded=1;whiteSpace=wrap;html=1;" vertex="1" parent="1">
          <mxGeometry x="612" y="1640" width="120" height="60" as="geometry" />
        </mxCell>
        <mxCell id="on4v9yn42gorZZdt6JrK-121" value="Testar integração entre frontend, backend e banco de dados." style="rounded=1;whiteSpace=wrap;html=1;" vertex="1" parent="1">
          <mxGeometry x="611" y="1720" width="120" height="60" as="geometry" />
        </mxCell>
        <mxCell id="on4v9yn42gorZZdt6JrK-128" style="edgeStyle=orthogonalEdgeStyle;rounded=0;orthogonalLoop=1;jettySize=auto;html=1;exitX=1;exitY=0.5;exitDx=0;exitDy=0;entryX=0;entryY=0.5;entryDx=0;entryDy=0;" edge="1" parent="1" source="on4v9yn42gorZZdt6JrK-125" target="on4v9yn42gorZZdt6JrK-126">
          <mxGeometry relative="1" as="geometry" />
        </mxCell>
        <mxCell id="on4v9yn42gorZZdt6JrK-125" value="7.1. Revisão de Funcionalidades e Correção de Bugs" style="rounded=1;whiteSpace=wrap;html=1;" vertex="1" parent="1">
          <mxGeometry x="450" y="1810" width="120" height="60" as="geometry" />
        </mxCell>
        <mxCell id="on4v9yn42gorZZdt6JrK-126" value="Revisar funcionalidades e corrigir possíveis erros." style="rounded=1;whiteSpace=wrap;html=1;" vertex="1" parent="1">
          <mxGeometry x="612" y="1810" width="120" height="60" as="geometry" />
        </mxCell>
        <mxCell id="on4v9yn42gorZZdt6JrK-132" style="edgeStyle=orthogonalEdgeStyle;rounded=0;orthogonalLoop=1;jettySize=auto;html=1;exitX=1;exitY=0.5;exitDx=0;exitDy=0;entryX=0;entryY=0.5;entryDx=0;entryDy=0;" edge="1" parent="1" source="on4v9yn42gorZZdt6JrK-129" target="on4v9yn42gorZZdt6JrK-130">
          <mxGeometry relative="1" as="geometry" />
        </mxCell>
        <mxCell id="on4v9yn42gorZZdt6JrK-129" value="8.1. Documentação Técnica" style="rounded=1;whiteSpace=wrap;html=1;" vertex="1" parent="1">
          <mxGeometry x="450" y="1910" width="120" height="60" as="geometry" />
        </mxCell>
        <mxCell id="on4v9yn42gorZZdt6JrK-130" value="Documentar arquitetura e banco de dados" style="rounded=1;whiteSpace=wrap;html=1;" vertex="1" parent="1">
          <mxGeometry x="612" y="1910" width="120" height="60" as="geometry" />
        </mxCell>
        <mxCell id="on4v9yn42gorZZdt6JrK-136" style="edgeStyle=orthogonalEdgeStyle;rounded=0;orthogonalLoop=1;jettySize=auto;html=1;exitX=1;exitY=0.5;exitDx=0;exitDy=0;" edge="1" parent="1" source="on4v9yn42gorZZdt6JrK-133">
          <mxGeometry relative="1" as="geometry">
            <mxPoint x="610" y="2040.3157894736842" as="targetPoint" />
          </mxGeometry>
        </mxCell>
        <mxCell id="on4v9yn42gorZZdt6JrK-133" value="9.2. Apresentação Final" style="rounded=1;whiteSpace=wrap;html=1;" vertex="1" parent="1">
          <mxGeometry x="450" y="2010" width="120" height="60" as="geometry" />
        </mxCell>
        <mxCell id="on4v9yn42gorZZdt6JrK-134" value="Preparar e realizar apresentação do projeto, destacando funcionalidades e objetivos alcançados." style="rounded=1;whiteSpace=wrap;html=1;" vertex="1" parent="1">
          <mxGeometry x="612" y="2000" width="128" height="80" as="geometry" />
        </mxCell>
      </root>
    </mxGraphModel>
  </diagram>
</mxfile>
